<svg xmlns="http://www.w3.org/2000/svg" width="19.958" height="15.75" viewBox="0 0 19.958 15.75">
  <g id="icon-menu" transform="translate(-4.5 -10.125)">
    <path id="Path_20" data-name="Path 20" d="M23.626,12.375H5.332c-.457,0-.832-.506-.832-1.125h0c0-.619.374-1.125.832-1.125H23.626c.457,0,.832.506.832,1.125h0C24.458,11.869,24.084,12.375,23.626,12.375Z" fill="#fff"/>
    <path id="Path_21" data-name="Path 21" d="M23.626,19.125H5.332c-.457,0-.832-.506-.832-1.125h0c0-.619.374-1.125.832-1.125H23.626c.457,0,.832.506.832,1.125h0C24.458,18.619,24.084,19.125,23.626,19.125Z" fill="#fff"/>
    <path id="Path_22" data-name="Path 22" d="M23.626,25.875H5.332c-.457,0-.832-.506-.832-1.125h0c0-.619.374-1.125.832-1.125H23.626c.457,0,.832.506.832,1.125h0C24.458,25.369,24.084,25.875,23.626,25.875Z" fill="#fff"/>
  </g>
</svg>
