<svg xmlns="http://www.w3.org/2000/svg" width="46.501" height="42.782" viewBox="0 0 46.501 42.782">
  <g id="icon-sms" transform="translate(0 1.332)">
    <path id="Path_89" data-name="Path 89" d="M40.108-1.332H6.393A6.4,6.4,0,0,0,0,5.061V25.694a6.4,6.4,0,0,0,6.37,6.393V41.45l13.456-9.363H40.108A6.4,6.4,0,0,0,46.5,25.694V5.061A6.4,6.4,0,0,0,40.108-1.332Zm3.668,27.026a3.673,3.673,0,0,1-3.668,3.668H18.971L9.1,36.235V29.363h-2.7a3.673,3.673,0,0,1-3.668-3.668V5.061A3.672,3.672,0,0,1,6.393,1.393H40.108a3.672,3.672,0,0,1,3.668,3.668Zm0,0"/>
    <path id="Path_90" data-name="Path 90" d="M171.293,131.172H192.9V133.9h-21.61Zm0,0" transform="translate(-158.847 -122.876)"/>
    <path id="Path_91" data-name="Path 91" d="M171.293,211.172H192.9V213.9h-21.61Zm0,0" transform="translate(-158.847 -197.064)"/>
    <path id="Path_92" data-name="Path 92" d="M171.293,291.172H192.9V293.9h-21.61Zm0,0" transform="translate(-158.847 -271.251)"/>
  </g>
</svg>
