<svg id="icon-printer" xmlns="http://www.w3.org/2000/svg" width="46.502" height="46.502" viewBox="0 0 46.502 46.502">
  <path id="Path_95" data-name="Path 95" d="M41.658,29.251H35.845a.969.969,0,1,1,0-1.938h5.813a2.91,2.91,0,0,0,2.906-2.906V10.844a2.91,2.91,0,0,0-2.906-2.906H4.844a2.91,2.91,0,0,0-2.906,2.906V24.407a2.91,2.91,0,0,0,2.906,2.906h5.813a.969.969,0,1,1,0,1.938H4.844A4.849,4.849,0,0,1,0,24.407V10.844A4.849,4.849,0,0,1,4.844,6H41.658A4.849,4.849,0,0,1,46.5,10.844V24.407A4.849,4.849,0,0,1,41.658,29.251Z" transform="translate(0 5.625)"/>
  <path id="Path_96" data-name="Path 96" d="M20.594,21.938H8.969a.969.969,0,1,1,0-1.938H20.594a.969.969,0,1,1,0,1.938Z" transform="translate(7.501 18.751)"/>
  <path id="Path_97" data-name="Path 97" d="M20.594,19.938H8.969a.969.969,0,1,1,0-1.938H20.594a.969.969,0,0,1,0,1.938Z" transform="translate(7.501 16.876)"/>
  <path id="Path_98" data-name="Path 98" d="M12.844,17.938H8.969a.969.969,0,1,1,0-1.938h3.875a.969.969,0,1,1,0,1.938Z" transform="translate(7.501 15.001)"/>
  <path id="Path_99" data-name="Path 99" d="M31.157,13.563a.969.969,0,0,1-.969-.969V4.844a2.91,2.91,0,0,0-2.906-2.906H9.844A2.91,2.91,0,0,0,6.938,4.844v7.75a.969.969,0,1,1-1.938,0V4.844A4.849,4.849,0,0,1,9.844,0H27.282a4.849,4.849,0,0,1,4.844,4.844v7.75A.969.969,0,0,1,31.157,13.563Z" transform="translate(4.688)"/>
  <path id="Path_100" data-name="Path 100" d="M27.282,34.313H9.844A4.849,4.849,0,0,1,5,29.469v-15.5A.969.969,0,0,1,5.969,13H31.157a.969.969,0,0,1,.969.969v15.5A4.849,4.849,0,0,1,27.282,34.313ZM6.938,14.938V29.469a2.91,2.91,0,0,0,2.906,2.906H27.282a2.91,2.91,0,0,0,2.906-2.906V14.938Z" transform="translate(4.688 12.188)"/>
</svg>
