<svg xmlns="http://www.w3.org/2000/svg" width="56" height="48.143" viewBox="0 0 56 48.143">
  <g id="icon-cash" transform="translate(0 -28.588)">
    <g id="Group_50" data-name="Group 50" transform="translate(0 28.588)">
      <g id="Group_49" data-name="Group 49" transform="translate(0 0)">
        <path id="Path_60" data-name="Path 60" d="M55.921,55.83h0L45.348,29.282a1.1,1.1,0,0,0-1.428-.615h0L1.026,45.747a1.077,1.077,0,0,0-.44.35A1.087,1.087,0,0,0,0,47.051V75.632a1.1,1.1,0,0,0,1.1,1.1H47.27a1.1,1.1,0,0,0,1.1-1.1V60.022l6.939-2.764A1.1,1.1,0,0,0,55.921,55.83Zm-9.751,18.7H2.2V48.15H46.17ZM18.342,45.957l18.407-7.334a8.746,8.746,0,0,0,6.3,2.717l1.836,4.617Zm30.027,11.7V47.051a1.1,1.1,0,0,0-1.1-1.1h-.018L44.923,40.1a.911.911,0,0,0-.09-.139,1.086,1.086,0,0,0-1.149-.846,6.574,6.574,0,0,1-5.764-2.482,1.089,1.089,0,0,0-1.41-.246,1.235,1.235,0,0,0-.155.029L13.883,45.364a1.086,1.086,0,0,0-.6.587H6.455L43.712,31.116l9.761,24.509Z" transform="translate(0 -28.588)"/>
        <path id="Path_61" data-name="Path 61" d="M32.785,203.708a6.573,6.573,0,0,1,4.438,4.432,1.1,1.1,0,0,0,1.053.785,1,1,0,0,0,.169-.025,1.018,1.018,0,0,0,.151.031H64.979a.946.946,0,0,0,.134-.027,1.024,1.024,0,0,0,1.236-.752v-.006a6.572,6.572,0,0,1,4.438-4.438,1.085,1.085,0,0,0,.754-1.209,1.108,1.108,0,0,0,.032-.163v-8.794a.991.991,0,0,0-.033-.163,1.084,1.084,0,0,0-.754-1.209,6.566,6.566,0,0,1-4.436-4.439,1.086,1.086,0,0,0-1.218-.754,1.047,1.047,0,0,0-.155-.031H38.6a1.039,1.039,0,0,0-.164.033,1.086,1.086,0,0,0-1.209.754,6.573,6.573,0,0,1-4.438,4.437,1.085,1.085,0,0,0-.754,1.209,1.109,1.109,0,0,0-.031.163v8.794a1.015,1.015,0,0,0,.031.153A1.088,1.088,0,0,0,32.785,203.708Zm1.414-9.721a8.723,8.723,0,0,0,4.843-4.843H64.531a8.725,8.725,0,0,0,4.845,4.843v7.9a8.733,8.733,0,0,0-4.843,4.844H39.042a8.733,8.733,0,0,0-4.843-4.844Z" transform="translate(-27.603 -165.185)"/>
        <path id="Path_62" data-name="Path 62" d="M134.6,232.137a6.6,6.6,0,1,0-6.6-6.6A6.6,6.6,0,0,0,134.6,232.137Zm0-10.993a4.4,4.4,0,1,1-4.4,4.4A4.4,4.4,0,0,1,134.6,221.144Z" transform="translate(-110.411 -192.788)"/>
        <path id="Path_63" data-name="Path 63" d="M77.649,258.243A1.649,1.649,0,1,0,76,256.594,1.649,1.649,0,0,0,77.649,258.243Zm0-2.2a.55.55,0,1,1-.55.55A.55.55,0,0,1,77.649,256.044Z" transform="translate(-65.557 -223.841)"/>
        <path id="Path_64" data-name="Path 64" d="M253.649,258.243A1.649,1.649,0,1,0,252,256.594,1.649,1.649,0,0,0,253.649,258.243Zm0-2.2a.55.55,0,1,1-.55.55A.55.55,0,0,1,253.649,256.044Z" transform="translate(-217.372 -223.841)"/>
      </g>
    </g>
  </g>
</svg>
