<svg xmlns="http://www.w3.org/2000/svg" width="162.027" height="151.552" viewBox="0 0 162.027 151.552">
  <g id="login-icon" transform="translate(-29.455 -47.052)">
    <g id="Group_31" data-name="Group 31" transform="translate(29.455 47.5)">
      <path id="Path_11" data-name="Path 11" d="M241.75,196.944H216.59a1.757,1.757,0,0,0-1.757,1.757v19.2a1.757,1.757,0,0,0,1.757,1.757h25.16a1.757,1.757,0,0,0,1.757-1.757V198.7A1.757,1.757,0,0,0,241.75,196.944Zm-1.757,19.2H218.347V200.458h21.646Z" transform="translate(-149.69 -144.428)"/>
      <path id="Path_12" data-name="Path 12" d="M230.876,134.828V129.14a16.64,16.64,0,1,0-33.28,0v5.688a5.855,5.855,0,0,0-5.788,5.847v25.715a5.856,5.856,0,0,0,5.85,5.85h33.157a5.856,5.856,0,0,0,5.85-5.85V140.674A5.854,5.854,0,0,0,230.876,134.828ZM201.11,129.14a13.126,13.126,0,0,1,26.252,0v5.684H201.109V129.14Zm32.04,37.249a2.338,2.338,0,0,1-2.335,2.336H197.658a2.338,2.338,0,0,1-2.335-2.336V140.674a2.338,2.338,0,0,1,2.335-2.336h33.157a2.338,2.338,0,0,1,2.335,2.336Z" transform="translate(-134.756 -89.659)"/>
      <path id="Path_13" data-name="Path 13" d="M83.511,364.257a1.757,1.757,0,0,0-3.514,0v6.3L75.542,366.1a1.757,1.757,0,0,0-2.485,2.484l4.455,4.455h-6.3a1.757,1.757,0,1,0,0,3.514h6.3l-4.455,4.455a1.757,1.757,0,0,0,2.485,2.484L80,379.041v6.3a1.757,1.757,0,1,0,3.514,0v-6.3l4.455,4.455a1.757,1.757,0,0,0,2.485-2.484L86,376.556h6.3a1.757,1.757,0,1,0,0-3.514H86l4.455-4.455a1.757,1.757,0,0,0-2.485-2.484l-4.455,4.455Z" transform="translate(-55.399 -251.807)"/>
      <path id="Path_14" data-name="Path 14" d="M151.213,376.556h6.3l-4.455,4.455a1.757,1.757,0,0,0,2.485,2.484L160,379.041v6.3a1.757,1.757,0,1,0,3.514,0v-6.3l4.455,4.455a1.757,1.757,0,0,0,2.485-2.484L166,376.556h6.3a1.757,1.757,0,1,0,0-3.514H166l4.455-4.455a1.757,1.757,0,1,0-2.485-2.484l-4.455,4.455v-6.3a1.757,1.757,0,0,0-3.514,0v6.3l-4.455-4.455a1.757,1.757,0,0,0-2.485,2.484l4.455,4.455h-6.3a1.757,1.757,0,0,0,0,3.514Z" transform="translate(-107.287 -251.807)"/>
      <path id="Path_15" data-name="Path 15" d="M231.211,376.556h6.3l-4.455,4.455a1.757,1.757,0,0,0,2.485,2.484L240,379.041v6.3a1.757,1.757,0,1,0,3.514,0v-6.3l4.455,4.455a1.757,1.757,0,0,0,2.484-2.484L246,376.556h6.3a1.757,1.757,0,0,0,0-3.514H246l4.455-4.455a1.757,1.757,0,0,0-2.484-2.484l-4.455,4.455v-6.3a1.757,1.757,0,0,0-3.514,0v6.3l-4.455-4.455a1.757,1.757,0,0,0-2.485,2.484l4.455,4.455h-6.3a1.757,1.757,0,1,0,0,3.514Z" transform="translate(-159.173 -251.807)"/>
      <path id="Path_16" data-name="Path 16" d="M311.212,376.556h6.3l-4.455,4.455a1.757,1.757,0,0,0,2.484,2.484L320,379.041v6.3a1.757,1.757,0,1,0,3.514,0v-6.3l4.455,4.455a1.757,1.757,0,0,0,2.484-2.484L326,376.556h6.3a1.757,1.757,0,1,0,0-3.514H326l4.455-4.455a1.757,1.757,0,0,0-2.484-2.484l-4.455,4.455v-6.3a1.757,1.757,0,0,0-3.514,0v6.3l-4.455-4.455a1.757,1.757,0,0,0-2.484,2.484l4.455,4.455h-6.3a1.757,1.757,0,1,0,0,3.514Z" transform="translate(-211.061 -251.807)"/>
      <path id="Path_17" data-name="Path 17" d="M189.427,76.855a7.022,7.022,0,0,0-9.935,0l-5.117,5.118a24.923,24.923,0,0,0-36.84,4.721,43.924,43.924,0,1,0-46.224,73.39H57.567a28.113,28.113,0,1,0,0,56.225H159.475a28.113,28.113,0,1,0,0-56.225H125.761a43.944,43.944,0,0,0,26.356-35.02A24.94,24.94,0,0,0,182.09,94.128l7.337-7.337a7.034,7.034,0,0,0,0-9.936ZM159.475,163.6a24.6,24.6,0,1,1,0,49.2H57.568a24.6,24.6,0,1,1,0-49.2Zm-50.954-3.514a40.412,40.412,0,1,1,27.191-70.3A24.921,24.921,0,0,0,148.7,123.957,40.554,40.554,0,0,1,108.521,160.084Zm49.544-37.811a21.432,21.432,0,1,1,13.818-37.809L160.245,96.1l-2.483-2.483a7.025,7.025,0,1,0-9.935,9.935L159,114.732a1.757,1.757,0,0,0,2.485,0l17.67-17.671a21.448,21.448,0,0,1-21.092,25.212Zm28.877-37.966-26.7,26.7-9.934-9.934a3.511,3.511,0,1,1,4.966-4.965L159,99.831a1.757,1.757,0,0,0,2.484,0L175.67,85.647h0l6.305-6.306a3.512,3.512,0,1,1,4.966,4.966Z" transform="translate(-29.455 -65.204)"/>
      <path id="Path_18" data-name="Path 18" d="M51.754,102.1a12.3,12.3,0,1,0-12.3-12.3A12.313,12.313,0,0,0,51.754,102.1Zm0-21.084A8.785,8.785,0,1,1,42.969,89.8,8.8,8.8,0,0,1,51.754,81.014Z" transform="translate(-35.941 -66.958)"/>
      <path id="Path_19" data-name="Path 19" d="M428.24,247.5a8.785,8.785,0,1,0,8.785,8.785A8.8,8.8,0,0,0,428.24,247.5Zm0,14.056a5.271,5.271,0,1,1,5.271-5.271A5.277,5.277,0,0,1,428.24,261.556Z" transform="translate(-282.406 -177.219)"/>
      <ellipse id="Ellipse_1" data-name="Ellipse 1" cx="3" cy="2.5" rx="3" ry="2.5" transform="translate(152.473 56.552)"/>
      <ellipse id="Ellipse_2" data-name="Ellipse 2" cx="2.5" cy="3" rx="2.5" ry="3" transform="translate(107.473 -0.448)"/>
      <ellipse id="Ellipse_3" data-name="Ellipse 3" cx="2.5" cy="3" rx="2.5" ry="3" transform="translate(33.473 -0.448)"/>
      <circle id="Ellipse_4" data-name="Ellipse 4" cx="2.5" cy="2.5" r="2.5" transform="translate(7.473 49.552)"/>
      <circle id="Ellipse_5" data-name="Ellipse 5" cx="2.5" cy="2.5" r="2.5" transform="translate(24.473 79.552)"/>
      <ellipse id="Ellipse_6" data-name="Ellipse 6" cx="3" cy="2.5" rx="3" ry="2.5" transform="translate(124.473 79.552)"/>
    </g>
  </g>
</svg>
