<svg xmlns="http://www.w3.org/2000/svg" width="17.936" height="13.452" viewBox="0 0 17.936 13.452">
  <g id="icon-money" transform="translate(-9.148 0.113)">
    <rect id="Rectangle_31" data-name="Rectangle 31" width="17.936" height="13.452" rx="1" transform="translate(9.148 -0.113)" fill="#5fc77d"/>
    <path id="Path_115" data-name="Path 115" d="M28.475,7.4v4.221a.335.335,0,0,1-.266.341,1.8,1.8,0,0,0-1.117.673,2.2,2.2,0,0,0-.455,1.09.323.323,0,0,1-.3.3H15.142a.323.323,0,0,1-.3-.3,2.2,2.2,0,0,0-.455-1.09,1.8,1.8,0,0,0-1.117-.673A.335.335,0,0,1,13,11.625V7.4a.335.335,0,0,1,.267-.341,1.771,1.771,0,0,0,.971-.51,2.167,2.167,0,0,0,.6-1.254.322.322,0,0,1,.3-.3h11.19a.323.323,0,0,1,.3.3,2.2,2.2,0,0,0,.455,1.09,1.8,1.8,0,0,0,1.117.673A.335.335,0,0,1,28.475,7.4Z" transform="translate(-2.731 -2.985)" fill="#6de08e"/>
    <g id="Group_64" data-name="Group 64" transform="translate(11.39 4.372)">
      <circle id="Ellipse_13" data-name="Ellipse 13" cx="1.121" cy="1.121" r="1.121" transform="translate(0 1.121)" fill="#5fc77d"/>
      <circle id="Ellipse_14" data-name="Ellipse 14" cx="1.121" cy="1.121" r="1.121" transform="translate(11.21 1.121)" fill="#5fc77d"/>
      <circle id="Ellipse_15" data-name="Ellipse 15" cx="2.242" cy="2.242" r="2.242" transform="translate(4.484)" fill="#5fc77d"/>
    </g>
  </g>
</svg>
