<svg xmlns="http://www.w3.org/2000/svg" width="20.101" height="25.225" viewBox="0 0 20.101 25.225">
  <g id="padlock" transform="translate(-52)">
    <g id="Group_25" data-name="Group 25" transform="translate(52)">
      <g id="Group_24" data-name="Group 24" transform="translate(0)">
        <path id="Path_8" data-name="Path 8" d="M69.145,9.262H67.37V5.211a5.322,5.322,0,0,0-10.642,0V9.262H54.956A2.959,2.959,0,0,0,52,12.218V22.269a2.959,2.959,0,0,0,2.956,2.956H69.145A2.959,2.959,0,0,0,72.1,22.269V12.218A2.959,2.959,0,0,0,69.145,9.262ZM58.7,5.211a3.352,3.352,0,0,1,6.7,0V9.262H58.7ZM70.131,22.269a.986.986,0,0,1-.985.985H54.956a.986.986,0,0,1-.985-.985V12.218a.986.986,0,0,1,.985-.985H69.145a.986.986,0,0,1,.985.985Z" transform="translate(-52)"/>
      </g>
    </g>
    <g id="Group_27" data-name="Group 27" transform="translate(60.228 14.091)">
      <g id="Group_26" data-name="Group 26">
        <path id="Path_9" data-name="Path 9" d="M220.823,286a1.823,1.823,0,0,0-.987,3.355v2.163a.985.985,0,0,0,1.971,0v-2.161a1.823,1.823,0,0,0-.984-3.357Z" transform="translate(-219 -286)"/>
      </g>
    </g>
  </g>
</svg>
