<svg xmlns="http://www.w3.org/2000/svg" width="19.987" height="19.987" viewBox="0 0 19.987 19.987">
  <path id="icon-check" d="M13.369,3.375a9.994,9.994,0,1,0,9.994,9.994A9.992,9.992,0,0,0,13.369,3.375Zm5.117,7.231-6.424,6.453h0a.868.868,0,0,1-.557.264.841.841,0,0,1-.562-.274L8.247,14.358a.191.191,0,0,1,0-.274l.855-.855a.186.186,0,0,1,.269,0L11.5,15.363l5.862-5.9A.19.19,0,0,1,17.5,9.4h0a.174.174,0,0,1,.135.058l.841.87A.189.189,0,0,1,18.486,10.606Z" transform="translate(-3.375 -3.375)" fill="#0071e3"/>
</svg>
