<svg xmlns="http://www.w3.org/2000/svg" width="29.052" height="28" viewBox="0 0 29.052 28">
  <g id="icon-offer" transform="translate(-7.442 -8.984)">
    <path id="Path_120" data-name="Path 120" d="M34.956,19.874a2.381,2.381,0,0,1-.652-2.007l.1-.676a3.75,3.75,0,0,0-3.079-4.239l-.672-.119a2.387,2.387,0,0,1-1.707-1.239l-.321-.6a3.749,3.749,0,0,0-4.983-1.618l-.614.3a2.386,2.386,0,0,1-2.109,0l-.611-.3a3.753,3.753,0,0,0-4.983,1.618l-.321.6a2.385,2.385,0,0,1-1.707,1.239l-.672.119a3.75,3.75,0,0,0-3.079,4.239l.1.676a2.381,2.381,0,0,1-.652,2.007l-.474.488a3.748,3.748,0,0,0,0,5.239l.474.492A2.381,2.381,0,0,1,9.636,28.1l-.1.676a3.75,3.75,0,0,0,3.079,4.239l.672.119A2.387,2.387,0,0,1,15,34.37l.321.6A3.75,3.75,0,0,0,20.3,36.589l.611-.294a2.386,2.386,0,0,1,2.109,0l.611.3a3.753,3.753,0,0,0,4.983-1.618l.321-.6a2.385,2.385,0,0,1,1.707-1.239l.672-.119A3.75,3.75,0,0,0,34.4,28.779l-.1-.676a2.381,2.381,0,0,1,.652-2.007l.474-.488a3.748,3.748,0,0,0,0-5.239Zm-.509,4.782-.474.488a3.749,3.749,0,0,0-1.024,3.147l.1.676a2.391,2.391,0,0,1-1.963,2.7l-.672.119a3.733,3.733,0,0,0-2.676,1.946l-.321.6a2.394,2.394,0,0,1-3.178,1.034l-.611-.3a3.738,3.738,0,0,0-3.311,0l-.611.3a2.391,2.391,0,0,1-3.178-1.034l-.321-.6a3.746,3.746,0,0,0-2.676-1.946l-.672-.119a2.391,2.391,0,0,1-1.963-2.7l.1-.676a3.735,3.735,0,0,0-1.024-3.147l-.474-.492a2.39,2.39,0,0,1,0-3.342l.474-.488a3.749,3.749,0,0,0,1.024-3.147l-.1-.676a2.391,2.391,0,0,1,1.963-2.7l.672-.119A3.733,3.733,0,0,0,16.2,12.232l.321-.6a2.391,2.391,0,0,1,2.116-1.28A2.425,2.425,0,0,1,19.7,10.6l.611.3a3.738,3.738,0,0,0,3.311,0l.611-.3a2.391,2.391,0,0,1,3.178,1.034l.321.6a3.746,3.746,0,0,0,2.676,1.946l.672.119A2.391,2.391,0,0,1,33.044,17l-.1.676a3.735,3.735,0,0,0,1.024,3.147l.474.492A2.39,2.39,0,0,1,34.447,24.656Z" transform="translate(0 0)"/>
    <path id="Path_121" data-name="Path 121" d="M44.566,33.7a.684.684,0,0,0-.966,0l-9.9,9.9a.682.682,0,1,0,.963.966l9.9-9.9a.681.681,0,0,0,0-.966Z" transform="translate(-17.167 -16.152)"/>
    <path id="Path_122" data-name="Path 122" d="M36.271,33.517a2.9,2.9,0,1,0-2.051-.85,2.889,2.889,0,0,0,2.051.85Zm-1.085-3.987a1.533,1.533,0,1,1-.451,1.085A1.53,1.53,0,0,1,35.186,29.531Z" transform="translate(-17.078 -12.34)"/>
    <path id="Path_123" data-name="Path 123" d="M50.485,56.14a2.9,2.9,0,1,0,4.953,2.051,2.9,2.9,0,0,0-4.953-2.051Zm3.137,3.137a1.533,1.533,0,1,1,.451-1.085A1.539,1.539,0,0,1,53.622,59.277Z" transform="translate(-27.793 -30.501)"/>
  </g>
</svg>
