<svg width="48.74" height="48.74" xmlns="http://www.w3.org/2000/svg"><g><path d="M47.911 20.681H.83a.696.696 0 0 1-.696-.696v-5.08c0-.243.128-.47.336-.595L24.005.1a.696.696 0 0 1 .72 0L48.27 14.31a.696.696 0 0 1 .336.596v5.079a.696.696 0 0 1-.696.696zM1.526 19.29h45.689v-3.99L24.366 1.509 1.526 15.298v3.992z" fill-rule="evenodd"/><path d="M24.374 15.53a4.165 4.165 0 1 1 0-8.329 4.165 4.165 0 0 1 0 8.33zm0-6.937a2.772 2.772 0 1 0 0 5.544 2.772 2.772 0 0 0 0-5.544zM43.845 25.081h-7.41a1.506 1.506 0 0 1-1.504-1.504v-3.59c0-.385.312-.697.696-.697h9.025c.385 0 .697.312.697.696v3.593a1.506 1.506 0 0 1-1.504 1.502zm-7.52-4.4v2.896c0 .061.05.111.11.112h7.41c.061 0 .111-.05.111-.112v-2.894l-7.632-.002z" fill-rule="evenodd"/><path d="M43.21 39.135h-6.146a.696.696 0 0 1-.696-.697V24.372a.696.696 0 0 1 .696-.696h6.146c.385 0 .697.312.697.696v14.066a.696.696 0 0 1-.697.697zm-5.45-1.393h4.754V25.069H37.76v12.673z" fill-rule="evenodd"/><path d="M44.652 43.55h-9.025a.696.696 0 0 1-.696-.697v-3.592c0-.83.674-1.504 1.504-1.505h7.41c.83.001 1.503.674 1.504 1.505v3.592a.696.696 0 0 1-.697.697zm-8.328-1.393h7.632V39.26a.112.112 0 0 0-.111-.112h-7.41a.112.112 0 0 0-.111.112v2.896zM28.073 25.081h-7.409a1.506 1.506 0 0 1-1.504-1.504v-3.59c0-.385.312-.697.696-.697h9.025c.384 0 .696.312.696.696v3.593a1.506 1.506 0 0 1-1.504 1.502zm-7.52-4.398v2.896c0 .061.05.111.111.112h7.41c.06 0 .11-.05.11-.112v-2.896h-7.631z" fill-rule="evenodd"/><path d="M27.434 39.135h-6.128a.696.696 0 0 1-.696-.697V24.372c0-.384.312-.696.696-.696h6.128c.385 0 .696.312.696.696v14.066a.696.696 0 0 1-.696.697zm-5.431-1.393h4.735V25.069h-4.735v12.673z" fill-rule="evenodd"/><path d="M28.88 43.55h-9.024a.696.696 0 0 1-.696-.697v-3.592c0-.83.674-1.504 1.504-1.505h7.41c.83.001 1.502.674 1.503 1.505v3.592a.696.696 0 0 1-.696.697zm-8.328-1.393h7.633V39.26a.112.112 0 0 0-.112-.112h-7.409a.112.112 0 0 0-.111.112l-.001 2.896zM12.992 25.081h-7.41a1.506 1.506 0 0 1-1.504-1.504v-3.59c0-.385.312-.697.696-.697H13.8a.696.696 0 0 1 .696.696v3.593a1.506 1.506 0 0 1-1.504 1.502zM5.47 20.683v2.896c0 .061.05.111.111.112h7.41c.061 0 .111-.05.111-.112v-2.896H5.471z" fill-rule="evenodd"/><path d="M12.384 39.135H6.186a.696.696 0 0 1-.696-.697V24.372c0-.384.312-.696.696-.696h6.198c.384 0 .696.312.696.696v14.066a.696.696 0 0 1-.696.697zm-5.501-1.393h4.804V25.069H6.883v12.673z" fill-rule="evenodd"/><path d="M13.8 43.55H4.774a.696.696 0 0 1-.696-.697v-3.592c0-.83.674-1.504 1.504-1.505h7.41c.83.001 1.503.674 1.504 1.505v3.592a.696.696 0 0 1-.696.697zm-8.33-1.393h7.633V39.26a.112.112 0 0 0-.111-.112h-7.41a.112.112 0 0 0-.111.112v2.896z" fill-rule="evenodd"/><path d="M48.047 48.746H.697A.696.696 0 0 1 0 48.05v-5.198a.696.696 0 0 1 .696-.696h47.351a.696.696 0 0 1 .696.696v5.198a.696.696 0 0 1-.696.696zM1.393 47.353H47.35V43.55H1.393v3.804z" fill-rule="evenodd"/></g></svg>