<svg xmlns="http://www.w3.org/2000/svg" width="48.22" height="35.069" viewBox="0 0 48.22 35.069">
  <g id="icon-mail" transform="translate(0 -69.818)">
    <g id="Group_54" data-name="Group 54" transform="translate(0 69.818)">
      <path id="Path_94" data-name="Path 94" d="M43.837,69.818H4.384A4.384,4.384,0,0,0,0,74.2v26.3a4.384,4.384,0,0,0,4.384,4.384H43.837A4.384,4.384,0,0,0,48.22,100.5V74.2A4.384,4.384,0,0,0,43.837,69.818ZM4.384,72.01H43.837a2.194,2.194,0,0,1,.734.131L25.6,91.112a2.093,2.093,0,0,1-2.96.01l-.01-.01L3.649,72.141A2.192,2.192,0,0,1,4.384,72.01ZM2.192,100.5V74.2a2.192,2.192,0,0,1,0-.384L15.759,87.353,2.192,100.887A2.193,2.193,0,0,1,2.192,100.5ZM43.837,102.7H4.384a2.194,2.194,0,0,1-.734-.131L17.315,88.9l3.759,3.759a4.285,4.285,0,0,0,6.06.011l.011-.011L30.9,88.9l13.666,13.666A2.191,2.191,0,0,1,43.837,102.7Zm2.192-1.808L32.461,87.353,46.029,73.818a2.192,2.192,0,0,1,0,.384v26.3A2.19,2.19,0,0,1,46.029,100.887Z" transform="translate(0 -69.818)"/>
    </g>
  </g>
</svg>
