<svg xmlns="http://www.w3.org/2000/svg" width="22.596" height="27.495" viewBox="0 0 22.596 27.495">
  <g id="icon-invoice" transform="translate(-40.218 0)">
    <g id="Group_71" data-name="Group 71" transform="translate(40.218 0)">
      <g id="Group_70" data-name="Group 70">
        <path id="Path_116" data-name="Path 116" d="M122.355,155.933h4.073a.636.636,0,1,0,0-1.273h-4.073a.636.636,0,1,0,0,1.273Z" transform="translate(-116.755 -145.24)"/>
        <path id="Path_117" data-name="Path 117" d="M130.247,222.579h-7.892a.636.636,0,1,0,0,1.273h7.892a.636.636,0,0,0,0-1.273Z" transform="translate(-116.755 -209.022)"/>
        <path id="Path_118" data-name="Path 118" d="M130.247,290.5h-7.892a.636.636,0,1,0,0,1.273h7.892a.636.636,0,0,0,0-1.273Z" transform="translate(-116.755 -272.803)"/>
        <path id="Path_119" data-name="Path 119" d="M62.812,22.467V2.419A2.323,2.323,0,0,0,60.587,0q-.081,0-.162,0H46.741a2.59,2.59,0,0,0-2.7,2.418V3.5H42.923a2.769,2.769,0,0,0-2.7,2.641v20.08a1.114,1.114,0,0,0,.636.891.986.986,0,0,0,1.082-.191l1.941-1.75L46.2,27.241a.955.955,0,0,0,.636.255,1.018,1.018,0,0,0,.636-.255l2.291-2.068,2.291,2.068a.955.955,0,0,0,1.273,0l2.323-2.068,1.909,1.75a.764.764,0,0,0,.955.191.955.955,0,0,0,.477-.891V21.7l.382-.286,1.941,1.75a.923.923,0,0,0,.668.255.572.572,0,0,0,.318-.064A.923.923,0,0,0,62.812,22.467ZM57.72,25.522l-1.5-1.464a.891.891,0,0,0-1.241-.032L52.66,26.095,50.4,24.027a1.018,1.018,0,0,0-1.273,0l-2.291,2.068-2.323-2.068a1.05,1.05,0,0,0-1.368.032l-1.655,1.464V6.143a1.5,1.5,0,0,1,1.432-1.368H56.606A1.237,1.237,0,0,1,57.72,6.143Zm3.819-23.1V21.767L59.948,20.3c-.255-.255-.318-.318-.955-.223V6.143A2.506,2.506,0,0,0,56.606,3.5h-11.3V2.419a1.322,1.322,0,0,1,1.432-1.146H60.425a1.05,1.05,0,0,1,1.116.98A1.039,1.039,0,0,1,61.539,2.419Z" transform="translate(-40.218 0)"/>
      </g>
    </g>
  </g>
</svg>
