<svg xmlns="http://www.w3.org/2000/svg" width="51.626" height="42.148" viewBox="0 0 51.626 42.148">
  <g id="icon-credit-card" transform="translate(1 -46.014)" opacity="0.376">
    <g id="Group_52" data-name="Group 52" transform="translate(-1 46.014)">
      <g id="Group_51" data-name="Group 51" transform="translate(0 0)">
        <path id="Path_65" data-name="Path 65" d="M264.394,251.743h13.763a.813.813,0,0,0,.86-.86v-7.742a.813.813,0,0,0-.86-.86H264.394a.813.813,0,0,0-.86.86v7.742A.813.813,0,0,0,264.394,251.743Zm.86-7.742H277.3v6.021H265.254Z" transform="translate(-236.869 -222.497)"/>
        <path id="Path_66" data-name="Path 66" d="M33.994,209.867h6.881a.86.86,0,1,0,0-1.72H33.994a.86.86,0,1,0,0,1.72Z" transform="translate(-29.693 -191.804)"/>
        <path id="Path_67" data-name="Path 67" d="M136.394,209.867h6.881a.86.86,0,1,0,0-1.72h-6.881a.86.86,0,1,0,0,1.72Z" transform="translate(-121.771 -191.804)"/>
        <path id="Path_68" data-name="Path 68" d="M33.994,244H45.176a.86.86,0,0,0,0-1.72H33.994a.86.86,0,0,0,0,1.72Z" transform="translate(-29.693 -222.497)"/>
        <path id="Path_69" data-name="Path 69" d="M181.641,242.28H179.06a.86.86,0,1,0,0,1.72h2.581a.86.86,0,1,0,0-1.72Z" transform="translate(-160.136 -222.496)"/>
        <path id="Path_70" data-name="Path 70" d="M49.836,55.132a3.2,3.2,0,0,0-2.322-1.29l-2.064-.25V49.455a3.451,3.451,0,0,0-3.441-3.441H2.441A3.451,3.451,0,0,0-1,49.455V76.98a3.454,3.454,0,0,0,2.465,3.3,3.348,3.348,0,0,0,3.04,3.411l39.74,4.473h.344a3.444,3.444,0,0,0,3.441-2.925L50.61,57.626A3.343,3.343,0,0,0,49.836,55.132ZM.72,52.035H43.729V57.2H.72Zm1.72-4.3H42.008a1.725,1.725,0,0,1,1.72,1.72v.86H.72v-.86A1.725,1.725,0,0,1,2.441,47.734ZM.72,76.98V58.916H43.729V76.98a1.725,1.725,0,0,1-1.72,1.72H2.441A1.725,1.725,0,0,1,.72,76.98Zm48.169-19.7L46.309,84.894a1.735,1.735,0,0,1-1.892,1.548L4.763,81.969a1.739,1.739,0,0,1-1.548-1.548H42.008a3.451,3.451,0,0,0,3.441-3.441V55.218l1.978.172a1.47,1.47,0,0,1,1.118.6A1.742,1.742,0,0,1,48.89,57.282Z" transform="translate(1 -46.014)"/>
      </g>
    </g>
  </g>
</svg>
