<svg width="119.44" height="176.05" xmlns="http://www.w3.org/2000/svg"><g><path d="M99.631 124.434H37.414a8.484 8.484 0 0 1-8.484-8.484V8.484A8.484 8.484 0 0 1 37.414 0h62.217a8.484 8.484 0 0 1 8.484 8.484v53.733h-5.656V8.484a2.828 2.828 0 0 0-2.828-2.828H37.414a2.828 2.828 0 0 0-2.828 2.828V115.95a2.828 2.828 0 0 0 2.828 2.828h62.217a2.828 2.828 0 0 0 2.828-2.828v-11.312h5.656v11.312a8.484 8.484 0 0 1-8.484 8.484z" fill="#bebebe" fill-rule="evenodd"/><path d="M110.95 79.186h-5.656a8.484 8.484 0 0 1-8.484-8.484v-2.828a8.484 8.484 0 0 1 8.484-8.484h5.656a8.484 8.484 0 0 1 8.484 8.484v2.828a8.484 8.484 0 0 1-8.484 8.484zm-8.484-11.312v2.828a2.828 2.828 0 0 0 2.828 2.828h5.656a2.828 2.828 0 0 0 2.828-2.828v-2.828a2.828 2.828 0 0 0-2.828-2.828h-5.656a2.828 2.828 0 0 0-2.828 2.828zM106.26 53.56l-1.955-5.309 7.57-2.788a3.143 3.143 0 0 0 1.726-3.923l-.914-2.786a2.879 2.879 0 0 0-1.465-1.733 2.4 2.4 0 0 0-1.92-.102l-3.049 1.117-1.942-5.314 3.048-1.117a8.085 8.085 0 0 1 6.335.325 8.484 8.484 0 0 1 4.367 5.065l.913 2.783a8.845 8.845 0 0 1 .458 2.797 8.801 8.801 0 0 1-5.616 8.201l-7.557 2.783z" fill="#bebebe" fill-rule="evenodd"/><path d="M110.95 93.326h-5.656a8.484 8.484 0 0 1-8.484-8.484v-2.828a8.484 8.484 0 0 1 8.484-8.484h5.656a8.484 8.484 0 0 1 8.484 8.484v2.828a8.484 8.484 0 0 1-8.484 8.484zm-8.484-11.312v2.828a2.828 2.828 0 0 0 2.828 2.828h5.656a2.828 2.828 0 0 0 2.828-2.828v-2.828a2.828 2.828 0 0 0-2.828-2.828h-5.656a2.828 2.828 0 0 0-2.828 2.828z" fill="#bebebe" fill-rule="evenodd"/><path d="M110.95 107.466h-5.656a8.484 8.484 0 0 1-8.484-8.484v-2.828a8.484 8.484 0 0 1 8.484-8.484h5.656a8.484 8.484 0 0 1 8.484 8.484v2.828a8.484 8.484 0 0 1-8.484 8.484zm-8.484-11.312v2.828a2.828 2.828 0 0 0 2.828 2.828h5.656a2.828 2.828 0 0 0 2.828-2.828v-2.828a2.828 2.828 0 0 0-2.828-2.828h-5.656a2.828 2.828 0 0 0-2.828 2.828zM40.24 11.31h56.561v5.656H40.24V11.31zM40.24 101.81h50.905v5.656H40.24v-5.656zM43.07 53.74h50.905v5.656H43.07V53.74zM51.556 45.252H45.9V33.94h11.312v5.656h-5.656v5.656zM57.212 79.192H45.9V67.88h5.656v5.656h5.656v5.656zM91.152 45.252h-5.656v-5.656H79.84V33.94h11.312v11.312zM91.152 79.192H79.84v-5.656h5.656V67.88h5.656v11.312zM60.04 114.956a1 1 0 0 0 1 1h14.968a1 1 0 0 0 1-1V111.3a1 1 0 0 0-1-1H61.04a1 1 0 0 0-1 1v3.656zM14.796 133.766H9.14V82.182v-.07c0-2.292.404-4.566 1.193-6.717L18.59 52.67A11.547 11.547 0 0 1 21.28 48.5l3.999 3.999a5.894 5.894 0 0 0-1.383 2.127l-8.252 22.726a14.11 14.11 0 0 0-.849 4.83v51.584zM71.008 154.154l-1.784-5.374a30.322 30.322 0 0 0 18.872-17.019l5.164 2.3a36.233 36.233 0 0 1-22.252 20.093z" fill="#bebebe" fill-rule="evenodd"/><path d="M70.454 176.057L0 154.615l7.211-25.238 70.456 21.442-7.212 25.238zm-63.49-25.238L66.6 168.97l4.1-14.355-59.635-18.15-4.1 14.355z" fill="#bebebe" fill-rule="evenodd"/></g></svg>